<?xml version="1.0" encoding="utf-8"?>
<!-- Generator: Adobe Illustrator 15.0.1, SVG Export Plug-In . SVG Version: 6.00 Build 0)  -->
<!DOCTYPE svg PUBLIC "-//W3C//DTD SVG 1.1//EN" "http://www.w3.org/Graphics/SVG/1.1/DTD/svg11.dtd">
<svg version="1.1" id="Layer_1" xmlns="http://www.w3.org/2000/svg" xmlns:xlink="http://www.w3.org/1999/xlink" x="0px" y="0px"
	 width="299.996px" height="300px" viewBox="0 0 299.996 300" enable-background="new 0 0 299.996 300" xml:space="preserve">
<g>
	<path fill="#007236" d="M149.994,4.341C69.549,4.341,4.336,69.549,4.336,149.993c0,80.445,65.212,145.657,145.657,145.657
		c80.453,0,145.666-65.212,145.666-145.657C295.659,69.549,230.446,4.341,149.994,4.341 M149.994,0
		c82.852,0,150.002,67.154,150.002,149.993c0,82.852-67.15,150.007-150.002,150.007C67.15,300,0,232.845,0,149.993
		C0,67.154,67.15,0,149.994,0z"/>
	<path fill="#007236" d="M139.972,10.099c2.911-0.75,5.982-1.146,9.147-1.146c19.035,0,34.46,14.525,34.46,32.466
		c0,17.928-15.426,32.462-34.46,32.462c-10.06,0-19.112-4.065-25.417-10.538c4.208,2.541,9.112,4.001,14.349,4.001
		c15.533,0,28.117-12.82,28.117-28.651C166.168,23.521,154.605,11.11,139.972,10.099z"/>
	<path fill="none" stroke="#007236" stroke-width="0" stroke-miterlimit="3.864" d="M139.972,10.099
		c2.911-0.75,5.982-1.146,9.147-1.146c19.035,0,34.46,14.525,34.46,32.466c0,17.928-15.426,32.462-34.46,32.462
		c-10.06,0-19.112-4.065-25.417-10.538c4.208,2.541,9.112,4.001,14.349,4.001c15.533,0,28.117-12.82,28.117-28.651
		C166.168,23.521,154.605,11.11,139.972,10.099z"/>
	<polygon fill="#007236" points="144.404,49.645 133.861,43.314 124.585,51.375 127.346,39.395 116.812,33.065 129.056,31.997 
		131.825,20.012 136.622,31.338 148.874,30.261 139.593,38.332 	"/>
	<polygon fill="none" stroke="#007236" stroke-width="0" stroke-miterlimit="3.864" points="144.404,49.645 133.861,43.314 
		124.585,51.375 127.346,39.395 116.812,33.065 129.056,31.997 131.825,20.012 136.622,31.338 148.874,30.261 139.593,38.332 	"/>
	<path fill="#007236" d="M81.017,115.917c-18.057,0-32.6,14.146-32.6,31.51c0,17.359,14.542,31.506,32.6,31.506
		c18.044,0,32.596-14.146,32.596-31.506C113.613,130.063,99.061,115.917,81.017,115.917 M81.017,113.096
		c19.508,0,35.408,15.327,35.408,34.331c0,19-15.899,34.327-35.408,34.327c-19.521,0-35.42-15.327-35.42-34.327
		C45.597,128.422,61.496,113.096,81.017,113.096z"/>
	<path fill="#007236" d="M217.772,117.91c-18.053,0-32.608,14.147-32.608,31.51c0,17.359,14.556,31.515,32.608,31.515
		c18.044,0,32.596-14.155,32.596-31.515C250.368,132.057,235.816,117.91,217.772,117.91 M217.772,115.094
		c19.508,0,35.412,15.322,35.412,34.327c0,19-15.904,34.327-35.412,34.327c-19.517,0-35.42-15.327-35.42-34.327
		C182.352,130.416,198.256,115.094,217.772,115.094z"/>
	<path fill-rule="evenodd" clip-rule="evenodd" fill="#007236" d="M101.141,111.602l-7.532-3.932
		c-2.786-7.979-5.925-9.297-5.925-9.297c0.917,2.102-0.246,3.522-0.246,3.522c-3.928-7.338-6.141-7.902-6.141-7.902
		c0.638,2.468-0.538,4.143-0.538,4.143c-1.331-5.275-5.228-7.98-5.228-7.98c1.852,3.829,0.405,6.834,0.405,6.834l-2.119-1.271
		c0.064-8.475-4.918-11.429-4.918-11.429c1.843,5.292,0.034,8.298,0.034,8.298s-2.523,1.783-7.489,1.968
		c2.971,3.983,3.536,6.886,3.536,6.886s-1.012,3.359-6.18,5.538c0,0,5.529,1.723,11.782-3.996l2.364,0.723
		c0,0-1.271,3.088-5.353,4.272c0,0,4.621,1.085,9.427-1.456c0,0-0.452,1.994-2.717,3.174c0,0,1.903,1.271,9.974-0.723
		c0,0-0.271,1.809-2.45,2.541c0,0,3.088,1.447,10.882-1.817l7.162,4.259L101.141,111.602"/>
	<path fill="#007236" d="M100.138,77.718c0,0,0.388-7.988,0.767-8.944l5.133,8.845h1.038l0.392-6.085l1.516-0.185
		c0,0,2.477,9.035,2.382,10.559c-0.091,1.525-0.091,7.416-0.091,7.416s1.06,2.002,2.287,0.379l2.364-5.599l1.339,0.935l1.903,20.374
		l1.714-0.293c0,0,0.203-4.375,2.566-6.374c0,0,0.668,10.65,1.146,11.701c0.474,1.051,0.396,0.952,0.766,1.709
		c0.362,0.771,0.086,5.064-1.051,7.438c-1.146,2.364-0.474,8.746-0.474,8.746s8.475,29.185-5.284,55.945l-2.576-1.288
		c0,0,14.298-28.379,3.979-54.92c0,0-15.056-5.275-17.527-15.585c0,0,2.045,2.248,4.199,2.364c0,0-9.147-10.973-15.055-16.446
		l6.236,1.077c0,0,1.834-0.646-0.539-3.118c0,0-6.447-7.743-13.001-8.066c0,0-0.323-1.503,0.646-1.723l7.416-0.104l-7.313-4.729
		c0,0-0.853-2.468,2.05-1.615l6.761,2.48c0,0,1.723,0.104-0.103-2.799l-3.544-9.883c0,0,0-1.512,1.929-0.107l6.456,7.734
		L100.138,77.718"/>
	<path fill-rule="evenodd" clip-rule="evenodd" fill="#007236" d="M198.183,111.602l7.532-3.932c2.787-7.979,5.93-9.297,5.93-9.297
		c-0.917,2.102,0.254,3.522,0.254,3.522c3.915-7.338,6.128-7.902,6.128-7.902c-0.633,2.468,0.538,4.143,0.538,4.143
		c1.331-5.275,5.241-7.98,5.241-7.98c-1.861,3.829-0.418,6.834-0.418,6.834l2.119-1.271c-0.06-8.475,4.922-11.429,4.922-11.429
		c-1.843,5.292-0.035,8.298-0.035,8.298s2.52,1.783,7.485,1.968c-2.972,3.983-3.536,6.886-3.536,6.886s1.017,3.359,6.184,5.538
		c0,0-5.529,1.723-11.782-3.996l-2.364,0.723c0,0,1.27,3.088,5.353,4.272c0,0-4.621,1.085-9.427-1.456c0,0,0.448,1.994,2.713,3.174
		c0,0-1.904,1.271-9.974-0.723c0,0,0.276,1.809,2.451,2.541c0,0-3.083,1.447-10.882-1.817l-7.162,4.259L198.183,111.602"/>
	<path fill="#007236" d="M199.19,77.718c0,0-0.388-7.988-0.767-8.944l-5.133,8.845h-1.042l-0.387-6.085l-1.516-0.185
		c0,0-2.48,9.035-2.381,10.559c0.086,1.525,0.086,7.416,0.086,7.416s-1.059,2.002-2.282,0.379l-2.364-5.599l-1.339,0.935
		l-1.899,20.374l-1.718-0.293c0,0-0.203-4.375-2.567-6.374c0,0-0.672,10.65-1.146,11.701c-0.478,1.051-0.396,0.952-0.758,1.709
		c-0.371,0.771-0.099,5.064,1.038,7.438c1.146,2.364,0.478,8.746,0.478,8.746s-8.475,29.185,5.284,55.945l2.575-1.288
		c0,0-14.297-28.379-3.979-54.92c0,0,15.055-5.275,17.523-15.585c0,0-2.045,2.248-4.186,2.364c0,0,9.134-10.973,15.042-16.446
		l-6.236,1.077c0,0-1.834-0.646,0.539-3.118c0,0,6.447-7.743,13.001-8.066c0,0,0.327-1.503-0.642-1.723l-7.42-0.104l7.312-4.729
		c0,0,0.857-2.468-2.045-1.615l-6.765,2.48c0,0-1.718,0.104,0.107-2.799l3.544-9.883c0,0,0-1.512-1.934-0.107l-6.456,7.734
		L199.19,77.718"/>
	<path fill-rule="evenodd" clip-rule="evenodd" fill="#007236" d="M153.874,200.292v-9.164l10.568-9.328v-4.996
		c-4.401,3.902-10.301,6.714-10.301,6.714c-0.707-12.515,14.965-28.117,14.965-28.117l-0.086-2.265l-7.05,5.624l-0.96-1.542
		l6.692-5.258c1.757-3.088-0.263-3.536-0.263-3.536c-1.675,2.541-4.324,4.892-4.324,4.892c-3.166-0.181-1.753-2.351-1.753-2.351
		c5.107-3.725,9.595-12.885,9.595-12.885l-1.761-0.267c-4.578,8.156-8.101,7.885-8.101,7.885c1.051-5.891,7.218-12.243,7.218-12.243
		l-1.051-1.356l-4.763,4.806l-0.263,1.356l-1.667-0.448l1.055-3.359l11.007-13.053l-1.231-1.456l-7.58,8.527l-0.969-2.002
		c1.146-1.266,4.763-8.157,4.763-8.157l-1.236-1.361c-0.883,2.27-4.319,6.257-4.319,6.257h-1.49v-2.455
		c10.387-8.518,11.886-16.95,11.886-16.95l-1.585-0.547c-4.668,8.703-7.226,8.432-7.226,8.432
		c4.754-6.714,4.401-14.147,4.401-14.147c-1.49,2.451-5.193,4.358-5.193,4.358l-0.616-1.632l8.281-10.796l-2.816-0.452l-5.289,7.166
		l-0.964-1.447l2.02-11.619l-1.322-0.896c-3.958,7.433-6.253,7.609-6.253,7.609c-1.843-1.447-5.809-12.605-5.809-12.605
		s-4.139,11.158-5.99,12.605c0,0-2.287-0.176-6.253-7.609l-1.313,0.896l2.02,11.619l-0.973,1.447l-5.28-7.166l-2.816,0.452
		l8.272,10.796l-0.607,1.632c0,0-3.704-1.908-5.202-4.358c0,0-0.345,7.433,4.41,14.147c0,0-2.558,0.271-7.226-8.432l-1.585,0.547
		c0,0,1.499,8.432,11.89,16.95v2.455h-1.503c0,0-3.428-3.988-4.311-6.257l-1.236,1.361c0,0,3.618,6.891,4.763,8.157l-0.969,2.002
		l-7.575-8.527l-1.236,1.456l11.007,13.053l1.06,3.359l-1.68,0.448l-0.263-1.356l-4.754-4.806l-1.06,1.356
		c0,0,6.167,6.352,7.226,12.243c0,0-3.518,0.271-8.096-7.885l-1.766,0.267c0,0,4.487,9.16,9.595,12.885c0,0,1.413,2.17-1.752,2.351
		c0,0-2.648-2.351-4.324-4.892c0,0-2.02,0.448-0.263,3.536l6.692,5.258l-0.969,1.542l-7.037-5.624l-0.09,2.265
		c0,0,15.671,15.602,14.965,28.117c0,0-5.9-2.812-10.301-6.714v4.996l10.568,9.328v9.164H153.874"/>
	<polyline fill="#007236" points="71.853,224.831 82.92,216.98 88.364,218.974 74.394,228.358 71.853,224.831 	"/>
	<polyline fill="#007236" points="94.208,241.975 115.43,219.301 120.094,220.968 97.386,244.946 94.208,241.975 	"/>
	<polyline fill="#007236" points="107.006,247.689 129.125,221.205 134.064,221.876 110.34,250.476 107.006,247.689 	"/>
	<rect x="147.091" y="219.702" fill="#007236" width="5.805" height="38.086"/>
	<polyline fill="#007236" points="223.487,227.544 212.419,219.706 206.977,221.7 220.938,231.084 223.487,227.544 	"/>
	<polyline fill="#007236" points="204.393,241.975 183.175,219.301 178.498,220.968 201.219,244.946 204.393,241.975 	"/>
	<polyline fill="#007236" points="191.594,247.689 169.467,221.205 164.536,221.876 188.252,250.476 191.594,247.689 	"/>
	<path fill="#007236" d="M30.576,157.96l-3.536-1.826c1.137-1.869,1.718-3.712,1.753-5.538c0.047-2.808-0.75-4.225-2.382-4.255
		c-0.767-0.017-1.499,0.302-2.205,0.956c-0.702,0.65-1.507,2.002-2.399,4.057c-0.909,2.046-1.641,3.419-2.205,4.134
		c-0.573,0.698-1.24,1.245-2.02,1.624c-0.775,0.362-1.619,0.539-2.558,0.521c-1.727-0.026-3.156-0.81-4.276-2.355
		c-1.12-1.55-1.649-3.519-1.615-5.908c0.056-3.114,0.586-5.388,1.581-6.834l3.406,1.516c-1.033,1.658-1.563,3.424-1.598,5.284
		c-0.017,1.103,0.211,1.968,0.698,2.584c0.465,0.607,1.085,0.926,1.86,0.935c1.288,0.026,2.653-1.658,4.108-5.056
		c0.767-1.787,1.464-3.075,2.102-3.863c0.625-0.784,1.356-1.382,2.192-1.778c0.823-0.405,1.74-0.603,2.756-0.586
		c1.813,0.039,3.294,0.93,4.444,2.674c1.137,1.735,1.684,4.048,1.641,6.942C32.277,153.697,31.695,155.958,30.576,157.96"/>
	<polyline fill="#007236" points="17.269,117.053 35.61,121.631 34.456,126.269 16.11,121.691 14.039,130.011 10.606,129.154 
		16.007,107.51 19.435,108.367 17.269,117.053 	"/>
	<path fill-rule="evenodd" clip-rule="evenodd" fill="#007236" d="M30.972,89.492l5.797,6.748l3.04-5.715L30.972,89.492
		 M48.099,91.124l-4.944-0.405l-4.333,8.148l3.14,3.794l-2.494,4.69L24.422,87.188l0.978-1.843l25.171,1.124L48.099,91.124z"/>
	<polyline fill="#007236" points="48.637,58.951 62.689,71.599 59.494,75.151 45.437,62.495 39.714,68.864 37.074,66.5 52,49.929 
		54.627,52.293 48.637,58.951 	"/>
	<polyline fill="#007236" points="68.042,41.178 71.056,45.493 78.352,40.386 80.293,43.155 72.999,48.262 76.861,53.774 
		86.861,46.772 88.889,49.67 74.975,59.407 62.099,41.027 76.181,31.17 78.209,34.06 68.042,41.178 	"/>
	<path fill-rule="evenodd" clip-rule="evenodd" fill="#007236" d="M228.857,49.938l-4.763,5.68c0.698,0.667,1.271,1.206,1.731,1.584
		c1.641,1.378,3.015,2.136,4.134,2.295c1.128,0.16,2.145-0.301,3.044-1.369c0.818-0.978,1.077-1.973,0.758-2.998
		c-0.31-1.025-1.313-2.248-3.027-3.686C230.373,51.143,229.757,50.644,228.857,49.938 M234.318,43.426l-3.458,4.122
		c0.538,0.512,1.111,1.021,1.74,1.542c2.381,2.002,4.194,2.252,5.457,0.758c1.102-1.322,0.573-2.89-1.594-4.716
		C235.886,44.653,235.175,44.089,234.318,43.426z M224.598,60.398l-6.313-5.301l14.418-17.183c2.868,2.222,4.871,3.803,5.981,4.746
		c2.141,1.792,3.493,3.583,4.048,5.353c0.573,1.774,0.271,3.372-0.917,4.789c-1.15,1.361-2.911,1.714-5.301,1.051
		c1.938,2.894,1.929,5.503-0.017,7.833c-1.313,1.559-3.062,2.213-5.258,1.946C229.051,63.352,226.838,62.275,224.598,60.398z"/>
	<path fill-rule="evenodd" clip-rule="evenodd" fill="#007236" d="M256.948,71.896l-8.608,2.252l3.803,5.236L256.948,71.896
		 M247.969,86.572l2.532-4.268l-5.426-7.463L240.287,76l-3.122-4.298l24.723-4.69l1.228,1.693L251.074,90.84L247.969,86.572z"/>
	<polyline fill="#007236" points="261.182,114.62 269.454,97.184 256.561,102.394 254.834,98.135 275.664,89.72 276.521,91.848 
		268.731,108.72 281.292,103.647 283.011,107.906 261.914,116.429 261.182,114.62 	"/>
	<polyline fill="#007236" points="266.853,142.022 275.276,133.263 271.474,130.778 265.397,131.631 264.726,126.898 
		286.951,123.776 287.623,128.5 276.986,130.003 288.894,137.569 289.651,142.965 278.769,135.972 267.646,147.685 266.853,142.022 
			"/>
	<path fill-rule="evenodd" clip-rule="evenodd" fill="#007236" d="M32.41,201.653c-2.407,1.18-4.031,2.575-4.875,4.195
		c-0.848,1.624-0.814,3.363,0.095,5.232c1.068,2.188,2.532,3.544,4.384,4.057c1.852,0.53,4.014,0.194,6.473-1.007
		c4.823-2.352,6.201-5.659,4.112-9.939c-0.956-1.946-2.338-3.131-4.156-3.536C36.626,200.241,34.615,200.577,32.41,201.653
		 M30.188,197.102c2.928-1.43,5.874-1.675,8.837-0.741c2.972,0.943,5.25,3.023,6.817,6.253c1.74,3.553,2.145,6.709,1.219,9.479
		c-0.917,2.782-3.036,4.965-6.352,6.589c-3.316,1.615-6.429,1.917-9.332,0.9c-2.898-1.003-5.228-3.316-6.994-6.925
		c-1.61-3.316-1.886-6.322-0.827-9.039C24.624,200.913,26.838,198.742,30.188,197.102z"/>
	<polyline fill="#007236" points="57.009,226.902 53.021,230.489 59.485,237.664 56.918,239.972 50.454,232.802 42.677,239.804 
		39.413,236.178 56.427,220.86 68.537,234.309 65.854,236.725 57.009,226.902 	"/>
	<path fill-rule="evenodd" clip-rule="evenodd" fill="#007236" d="M90.354,254.95l-3.437,6.473c0.685,0.448,1.253,0.784,1.667,1.012
		c1.968,1.042,3.544,1.538,4.737,1.473c1.197-0.069,2.123-0.723,2.786-1.955c1.111-2.102-0.353-4.225-4.41-6.377
		C91.245,255.338,90.797,255.123,90.354,254.95 M85.211,264.605l-3.949,7.446l-4.302-2.295l10.74-20.197
		c2.92,1.421,4.629,2.27,5.116,2.523c3.828,2.037,6.365,4.014,7.609,5.934c1.253,1.925,1.331,3.928,0.228,5.999
		c-2.467,4.638-6.972,5.211-13.535,1.727C86.633,265.488,86,265.109,85.211,264.605z"/>
	<path fill-rule="evenodd" clip-rule="evenodd" fill="#007236" d="M119.564,269.997l-5.245,7.399l6.404,1.593L119.564,269.997
		 M122.178,287.343l-0.831-4.983l-9.13-2.287l-2.98,4.04l-5.254-1.305l16.235-19.87l2.071,0.521l5.107,25.188L122.178,287.343z"/>
	<polyline fill="#007236" points="155.583,289.996 148.107,280.108 144.985,283.549 144.877,289.811 140.002,289.725 
		140.398,266.836 145.273,266.917 145.08,277.869 154.614,267.085 160.161,267.18 151.38,277.034 161.414,290.104 155.583,289.996 	
		"/>
	<polyline fill="#007236" points="172.865,287.864 168.498,265.389 173.287,264.463 177.654,286.938 172.865,287.864 	"/>
	<path fill="#007236" d="M189.665,282.925l0.37-4.048c2.205,0.362,4.173,0.211,5.909-0.46c2.674-1.021,3.712-2.317,3.113-3.872
		c-0.271-0.732-0.857-1.305-1.744-1.727c-0.883-0.417-2.472-0.654-4.754-0.715c-2.278-0.082-3.863-0.237-4.754-0.504
		c-0.883-0.271-1.649-0.706-2.304-1.296c-0.642-0.59-1.128-1.322-1.473-2.205c-0.633-1.658-0.431-3.307,0.59-4.957
		c1.042-1.641,2.7-2.903,4.979-3.781c2.962-1.141,5.318-1.512,7.063-1.12l-0.125,3.798c-1.964-0.336-3.837-0.168-5.607,0.512
		c-1.06,0.405-1.783,0.952-2.188,1.641c-0.396,0.68-0.452,1.382-0.167,2.127c0.469,1.223,2.583,1.877,6.352,1.946
		c1.981,0.043,3.471,0.211,4.462,0.513c0.978,0.297,1.817,0.758,2.523,1.391c0.685,0.629,1.223,1.421,1.593,2.381
		c0.663,1.74,0.388,3.476-0.827,5.224c-1.21,1.744-3.187,3.148-5.947,4.207C194.337,282.899,191.985,283.213,189.665,282.925"/>
	<polyline fill="#007236" points="216.722,250.037 227.225,266.211 223.134,268.864 212.631,252.689 205.31,257.452 203.342,254.42 
		222.419,242.035 224.387,245.063 216.722,250.037 	"/>
	<path fill-rule="evenodd" clip-rule="evenodd" fill="#007236" d="M239.408,234.529l3.923,8.178l4.509-4.823L239.408,234.529
		 M255.846,240.653l-4.763-1.697l-6.421,6.89l2.093,4.561l-3.695,3.966l-9.509-23.836l1.464-1.563l24.5,7.743L255.846,240.653z"/>
	<polyline fill="#007236" points="276.017,209.861 256.965,214.835 269.497,221.498 267.292,225.632 247.061,214.883 
		248.163,212.807 266.457,207.833 254.257,201.352 256.453,197.213 276.952,208.109 276.017,209.861 	"/>
	<path fill="#007236" d="M189.268,46.975c41.506,15.805,70.944,55.966,70.944,103.019c0,60.876-49.347,110.219-110.219,110.219
		c-60.863,0-110.211-49.343-110.211-110.219c0-47.508,30.068-87.989,72.198-103.479l1.499,4.083
		c-40.48,14.87-69.347,53.766-69.347,99.397c0,58.478,47.397,105.87,105.861,105.87c58.473,0,105.87-47.393,105.87-105.87
		c0-45.192-28.276-83.777-68.141-98.962L189.268,46.975"/>
	<path fill-rule="evenodd" clip-rule="evenodd" fill="#007236" d="M213.294,209.552c-0.409,0.409-0.353,1.731-3.247,3.126
		c-2.717,1.313-9.931,1.585-9.931,1.585s-13.69,0.681-16.459-3.079c0,0-0.767-1.955,0.362-3.992c0,0,1.951,2.451,6.486,3.359
		c4.53,0.9,20.266-0.371,20.266-0.371s2.678-1.533,3.272-3.441c0.362-1.163,0.129-3.449,0.129-3.449s0.09-1.266,1.456-2.898
		c1.361-1.632,11.606-11.748,11.606-11.748l1.494,1.094l-11.016,10.607c0,0-1.951,1.68-2.084,4.763c0,0-0.185,4.074,0.9,4.491
		c1.094,0.405,3.221-0.732,3.635-2.407c0,0,0.22,2.627,3.351,1.408c0,0,0.909,0.047,1.271-3.269v-2.945l1.456-1.404v5.892
		c0,0,0.766,0.818,1.675-0.276c0.909-1.085,0.229-1.718,0.229-1.718l0.724,0.185c0,0,0.495,3.166-2.089,3.803
		c0,0-1.128,0.229-1.533-0.857c0,0-1.271,4.806-5.542,1.589c0,0-0.095,2.39-3.26,2.442c-2.446,0.043-2.313-2.859-2.313-2.859
		L213.294,209.552z"/>
	
		<path fill="none" stroke="#007236" stroke-width="0.3704" stroke-linecap="round" stroke-linejoin="round" stroke-miterlimit="3.864" d="
		M213.294,209.552c-0.409,0.409-0.353,1.731-3.247,3.126c-2.717,1.313-9.931,1.585-9.931,1.585s-13.69,0.681-16.459-3.079
		c0,0-0.767-1.955,0.362-3.992c0,0,1.951,2.451,6.486,3.359c4.53,0.9,20.266-0.371,20.266-0.371s2.678-1.533,3.272-3.441
		c0.362-1.163,0.129-3.449,0.129-3.449s0.09-1.266,1.456-2.898c1.361-1.632,11.606-11.748,11.606-11.748l1.494,1.094l-11.016,10.607
		c0,0-1.951,1.68-2.084,4.763c0,0-0.185,4.074,0.9,4.491c1.094,0.405,3.221-0.732,3.635-2.407c0,0,0.22,2.627,3.351,1.408
		c0,0,0.909,0.047,1.271-3.269v-2.945l1.456-1.404v5.892c0,0,0.766,0.818,1.675-0.276c0.909-1.085,0.229-1.718,0.229-1.718
		l0.724,0.185c0,0,0.495,3.166-2.089,3.803c0,0-1.128,0.229-1.533-0.857c0,0-1.271,4.806-5.542,1.589c0,0-0.095,2.39-3.26,2.442
		c-2.446,0.043-2.313-2.859-2.313-2.859L213.294,209.552z"/>
	<polygon fill="#007236" points="74.747,202.145 76.357,200.529 77.964,202.145 76.357,203.751 	"/>
	
		<polygon fill="none" stroke="#007236" stroke-width="0.3704" stroke-linecap="round" stroke-linejoin="round" stroke-miterlimit="3.864" points="
		74.747,202.145 76.357,200.529 77.964,202.145 76.357,203.751 	"/>
	<path fill="#007236" d="M72.434,199.638c0,0,0.405-0.922-0.202-0.952c-0.732-0.026-1.008,0.723-1.008,0.723
		s-0.65,7.463,0.892,10.047c1.546,2.584,4.393,2.266,4.393,2.266s4.871-0.431,5.856-6.21c0,0,0.319-5.168-0.547-6.843
		c-0.865-1.684,1.085,7.295-3.811,10.021l-0.289,0.043c-3.406,0.68-5.512-2.498-5.646-5.125c-0.142-2.627,0.292-3.669,0.292-3.669
		L72.434,199.638z"/>
	
		<path fill="none" stroke="#007236" stroke-width="0.3704" stroke-linecap="round" stroke-linejoin="round" stroke-miterlimit="3.864" d="
		M72.434,199.638c0,0,0.405-0.922-0.202-0.952c-0.732-0.026-1.008,0.723-1.008,0.723s-0.65,7.463,0.892,10.047
		c1.546,2.584,4.393,2.266,4.393,2.266s4.871-0.431,5.856-6.21c0,0,0.319-5.168-0.547-6.843c-0.865-1.684,1.085,7.295-3.811,10.021
		l-0.289,0.043c-3.406,0.68-5.512-2.498-5.646-5.125c-0.142-2.627,0.292-3.669,0.292-3.669L72.434,199.638z"/>
	<path fill="#007236" d="M128.702,184.927l-10.116,10.788c0,0,0.59,4.543-2.08,6.671c-2.674,2.131-12.648,10.06-23.763,3.536
		c0,0-2.352,3.755-3.897,3.579c-2.407-0.271-2.627-3.94-2.627-3.94v-7.885c0,0,1.903-2.726,2.037-4.268v11.791
		c0,0-0.211,1.817,0.995,1.817c1.68,0,2.726-4.543,2.726-4.543s0.724,2.045,2.313,2.679c1.585,0.637,8.298,2.674,15.779-0.861
		c0,0,4.276-1.37,5.758-3.583c0.909-1.356,0.857-3.493,0.857-3.493s0.414-1.675,1.499-2.855l9.436-10.155L128.702,184.927z"/>
	
		<path fill="none" stroke="#007236" stroke-width="0.3704" stroke-linecap="round" stroke-linejoin="round" stroke-miterlimit="3.864" d="
		M128.702,184.927l-10.116,10.788c0,0,0.59,4.543-2.08,6.671c-2.674,2.131-12.648,10.06-23.763,3.536c0,0-2.352,3.755-3.897,3.579
		c-2.407-0.271-2.627-3.94-2.627-3.94v-7.885c0,0,1.903-2.726,2.037-4.268v11.791c0,0-0.211,1.817,0.995,1.817
		c1.68,0,2.726-4.543,2.726-4.543s0.724,2.045,2.313,2.679c1.585,0.637,8.298,2.674,15.779-0.861c0,0,4.276-1.37,5.758-3.583
		c0.909-1.356,0.857-3.493,0.857-3.493s0.414-1.675,1.499-2.855l9.436-10.155L128.702,184.927z"/>
	<path fill-rule="evenodd" clip-rule="evenodd" fill="#007236" d="M121.808,197.984v7.89c0,0,0.457,1.817,2.494,1.503
		c2.045-0.319,3.854-3.678,3.854-3.678s-2.855,2.855-4.349,0.676V192.55C123.806,192.55,122.264,197.623,121.808,197.984z"/>
	
		<path fill="none" stroke="#007236" stroke-width="0.3704" stroke-linecap="round" stroke-linejoin="round" stroke-miterlimit="3.864" d="
		M121.808,197.984v7.89c0,0,0.457,1.817,2.494,1.503c2.045-0.319,3.854-3.678,3.854-3.678s-2.855,2.855-4.349,0.676V192.55
		C123.806,192.55,122.264,197.623,121.808,197.984z"/>
	<polygon fill="#007236" points="121.39,214.026 123.005,212.411 124.62,214.026 123.005,215.632 	"/>
	
		<polygon fill="none" stroke="#007236" stroke-width="0.3704" stroke-linecap="round" stroke-linejoin="round" stroke-miterlimit="3.864" points="
		121.39,214.026 123.005,212.411 124.62,214.026 123.005,215.632 	"/>
	<polygon fill="#007236" points="123.298,210.852 124.908,209.237 126.523,210.852 124.908,212.454 	"/>
	
		<polygon fill="none" stroke="#007236" stroke-width="0.3704" stroke-linecap="round" stroke-linejoin="round" stroke-miterlimit="3.864" points="
		123.298,210.852 124.908,209.237 126.523,210.852 124.908,212.454 	"/>
	<polygon fill="#007236" points="119.547,210.852 121.153,209.237 122.768,210.852 121.153,212.454 	"/>
	
		<polygon fill="none" stroke="#007236" stroke-width="0.3704" stroke-linecap="round" stroke-linejoin="round" stroke-miterlimit="3.864" points="
		119.547,210.852 121.153,209.237 122.768,210.852 121.153,212.454 	"/>
	<polygon fill="#007236" points="94.828,194.974 96.434,193.368 98.045,194.974 96.434,196.589 	"/>
	
		<polygon fill="none" stroke="#007236" stroke-width="0.3704" stroke-linecap="round" stroke-linejoin="round" stroke-miterlimit="3.864" points="
		94.828,194.974 96.434,193.368 98.045,194.974 96.434,196.589 	"/>
	<polygon fill="#007236" points="91.068,194.974 92.683,193.368 94.29,194.974 92.683,196.589 	"/>
	
		<polygon fill="none" stroke="#007236" stroke-width="0.3704" stroke-linecap="round" stroke-linejoin="round" stroke-miterlimit="3.864" points="
		91.068,194.974 92.683,193.368 94.29,194.974 92.683,196.589 	"/>
	
		<rect x="142.582" y="203.226" transform="matrix(-0.7063 0.7079 -0.7079 -0.7063 390.5687 247.254)" fill="#007236" width="2.829" height="2.832"/>
	
		<rect x="142.582" y="203.226" transform="matrix(-0.7063 0.7079 -0.7079 -0.7063 390.5687 247.254)" fill="none" stroke="#007236" stroke-width="0.3704" stroke-linecap="round" stroke-linejoin="round" stroke-miterlimit="3.864" width="2.829" height="2.832"/>
	
		<rect x="137.906" y="203.226" transform="matrix(-0.7072 0.707 -0.707 -0.7072 382.5358 250.86)" fill="#007236" width="2.832" height="2.832"/>
	
		<rect x="137.906" y="203.226" transform="matrix(-0.7072 0.707 -0.707 -0.7072 382.5358 250.86)" fill="none" stroke="#007236" stroke-width="0.3704" stroke-linecap="round" stroke-linejoin="round" stroke-miterlimit="3.864" width="2.832" height="2.832"/>
	
		<rect x="225.296" y="211.446" transform="matrix(-0.7071 0.7071 -0.7071 -0.7071 537.1176 202.8916)" fill="#007236" width="2.485" height="2.482"/>
	
		<rect x="225.296" y="211.446" transform="matrix(-0.7071 0.7071 -0.7071 -0.7071 537.1176 202.8916)" fill="none" stroke="#007236" stroke-width="0.3704" stroke-linecap="round" stroke-linejoin="round" stroke-miterlimit="3.864" width="2.485" height="2.482"/>
	<polygon fill="#007236" points="221.343,215.456 223.091,213.699 224.844,215.456 223.091,217.2 	"/>
	
		<polygon fill="none" stroke="#007236" stroke-width="0.3704" stroke-linecap="round" stroke-linejoin="round" stroke-miterlimit="3.864" points="
		221.343,215.456 223.091,213.699 224.844,215.456 223.091,217.2 	"/>
	<polygon fill="#007236" points="217.075,215.456 218.832,213.699 220.576,215.456 218.832,217.2 	"/>
	
		<polygon fill="none" stroke="#007236" stroke-width="0.3704" stroke-linecap="round" stroke-linejoin="round" stroke-miterlimit="3.864" points="
		217.075,215.456 218.832,213.699 220.576,215.456 218.832,217.2 	"/>
	<path fill="#007236" d="M166.793,194.543l-0.095,10.697c0,0-0.831,4.208-3.854,3.94c-2.127-0.172-1.951-1.399-1.951-1.399
		s-4.53,4.939-12.833,6.119c-8.299,1.185-16.184,0.405-17.997-3.131c0,0-0.538-2.222,0-4.302h0.633c0,0,0.431,2.751,1.163,3.815
		c0.758,1.094,16.029,2.666,23.91-0.685c0,0,2.859-1.27,4.896-3.906c0,0,1.094-0.585,1.727,1.408c0,0,0.276,0.405,0.594,0.452
		c0.314,0.043,1.356,0.138,1.632-0.956l0.491-11.145c0,0,0.638-2.902,1.632-1.271L166.793,194.543z"/>
	
		<path fill="none" stroke="#007236" stroke-width="0.3704" stroke-linecap="round" stroke-linejoin="round" stroke-miterlimit="3.864" d="
		M166.793,194.543l-0.095,10.697c0,0-0.831,4.208-3.854,3.94c-2.127-0.172-1.951-1.399-1.951-1.399s-4.53,4.939-12.833,6.119
		c-8.299,1.185-16.184,0.405-17.997-3.131c0,0-0.538-2.222,0-4.302h0.633c0,0,0.431,2.751,1.163,3.815
		c0.758,1.094,16.029,2.666,23.91-0.685c0,0,2.859-1.27,4.896-3.906c0,0,1.094-0.585,1.727,1.408c0,0,0.276,0.405,0.594,0.452
		c0.314,0.043,1.356,0.138,1.632-0.956l0.491-11.145c0,0,0.638-2.902,1.632-1.271L166.793,194.543z"/>
	<path fill="#007236" d="M163.895,216.037l1.356-1.589c0,0,4.074-0.995,5.982-4.173c0,0,0.138-1.456-0.999-1.223
		c0,0-0.134,1.077-1.447,1.18c-1.77,0.133-0.775-2.855-0.775-2.855s2.795-4.5,4.173-0.638c1.632,4.578-2.859,9.113-6.21,9.246
		C162.624,216.123,163.895,216.037,163.895,216.037z"/>
	
		<path fill="none" stroke="#007236" stroke-width="0.3704" stroke-linecap="round" stroke-linejoin="round" stroke-miterlimit="3.864" d="
		M163.895,216.037l1.356-1.589c0,0,4.074-0.995,5.982-4.173c0,0,0.138-1.456-0.999-1.223c0,0-0.134,1.077-1.447,1.18
		c-1.77,0.133-0.775-2.855-0.775-2.855s2.795-4.5,4.173-0.638c1.632,4.578-2.859,9.113-6.21,9.246
		C162.624,216.123,163.895,216.037,163.895,216.037z"/>
	<path fill="#007236" d="M177.899,207.377l1.456-4.449c0,0,2.803,2.993,2.265,8.204c0,0-1.18,3.768-4.173,4.173
		c-2.998,0.414-5.539,0-5.539,0l3.863-1.903c0,0,3.634-0.435,3.988-1.636C180.754,208.372,177.899,207.377,177.899,207.377z"/>
	
		<path fill="none" stroke="#007236" stroke-width="0.3704" stroke-linecap="round" stroke-linejoin="round" stroke-miterlimit="3.864" d="
		M177.899,207.377l1.456-4.449c0,0,2.803,2.993,2.265,8.204c0,0-1.18,3.768-4.173,4.173c-2.998,0.414-5.539,0-5.539,0l3.863-1.903
		c0,0,3.634-0.435,3.988-1.636C180.754,208.372,177.899,207.377,177.899,207.377z"/>
	<polygon fill="#007236" points="218.083,204.164 219.827,202.412 221.584,204.164 219.827,205.913 	"/>
	
		<polygon fill="none" stroke="#007236" stroke-width="0.3704" stroke-linecap="round" stroke-linejoin="round" stroke-miterlimit="3.864" points="
		218.083,204.164 219.827,202.412 221.584,204.164 219.827,205.913 	"/>
	<path fill-rule="evenodd" clip-rule="evenodd" fill="#007236" d="M252.043,148.788l-14.866,6.8l8.342,13.062l2.08-3.088
		l3.087-6.438l1.632-6.529L252.043,148.788 M248.236,137.268l-33.19,13.699l-8.156,9.789l-3.811-6.714l8.07-4.53l36.187-15.331
		L248.236,137.268z M251.32,143.796l-18.768,7.256l-8.165,9.789l-3.811-6.709l8.07-4.535l21.769-8.88L251.32,143.796z
		 M187.722,165.281l11.425-12.295l7.308,13.264l11.081-12.532l6.903,12.76l8.6-12.049l9.896,17.958l-3.536,1.951L232.6,162
		l-8.626,12.084l-7.243-13.363l-11.05,12.497l-7.381-13.397l-7.623,8.199L187.722,165.281z M206.977,117.768h11.059v24.121
		l27.755-12.33c26.7,42.415-37.57,75.824-59.124,32.466l11.244-11.791l2.179-0.362l6.886-3.062V117.768z"/>
	<path fill="none" stroke="#007236" stroke-width="0" stroke-miterlimit="3.864" d="M252.043,148.788l-14.866,6.8l8.342,13.062
		l2.08-3.088l3.087-6.438l1.632-6.529L252.043,148.788z M248.236,137.268l-33.19,13.699l-8.156,9.789l-3.811-6.714l8.07-4.53
		l36.187-15.331L248.236,137.268z M251.32,143.796l-18.768,7.256l-8.165,9.789l-3.811-6.709l8.07-4.535l21.769-8.88L251.32,143.796z
		 M187.722,165.281l11.425-12.295l7.308,13.264l11.081-12.532l6.903,12.76l8.6-12.049l9.896,17.958l-3.536,1.951L232.6,162
		l-8.626,12.084l-7.243-13.363l-11.05,12.497l-7.381-13.397l-7.623,8.199L187.722,165.281z M206.977,117.768h11.059v24.121
		l27.755-12.33c26.7,42.415-37.57,75.824-59.124,32.466l11.244-11.791l2.179-0.362l6.886-3.062V117.768z"/>
	<polygon fill="#007236" points="106.856,168.55 82.012,160.57 53.533,167.245 62.969,174.902 80.927,170.367 96.335,175.625 	"/>
	<polygon fill="none" stroke="#007236" stroke-width="0" stroke-miterlimit="3.864" points="106.856,168.55 82.012,160.57 
		53.533,167.245 62.969,174.902 80.927,170.367 96.335,175.625 	"/>
	<path fill="#007236" d="M114.284,156.371l-66.517-0.81c-1.193-5.318-1.262-10.09-0.194-14.297l12.312-0.194v-4.436l6.348-16.873
		l0.177-2.356l4.72-1.27l-0.883,6.352l-5.469,14.693v3.807l7.808-0.121v-7.136h3.755v-4.72h1.546v-3.626h5.758v3.626h1.542v4.72
		h3.717v6.877l4.9-0.077v-3.897l6.344-16.873l3.992,2.726l-5.439,14.693v3.269l12.153-0.194v-1.442l2.877-0.999
		C114.732,143.37,114.917,149.554,114.284,156.371z"/>
	<path fill="none" stroke="#007236" stroke-width="0" stroke-miterlimit="3.864" d="M114.284,156.371l-66.517-0.81
		c-1.193-5.318-1.262-10.09-0.194-14.297l12.312-0.194v-4.436l6.348-16.873l0.177-2.356l4.72-1.27l-0.883,6.352l-5.469,14.693v3.807
		l7.808-0.121v-7.136h3.755v-4.72h1.546v-3.626h5.758v3.626h1.542v4.72h3.717v6.877l4.9-0.077v-3.897l6.344-16.873l3.992,2.726
		l-5.439,14.693v3.269l12.153-0.194v-1.442l2.877-0.999C114.732,143.37,114.917,149.554,114.284,156.371z"/>
</g>
</svg>
